ffmpeg version 6.1.1-3ubuntu5 Copyright (c) 2000-2023 the FFmpeg developers
  built with gcc 13 (Ubuntu 13.2.0-23ubuntu3)
  configuration: --prefix=/usr --extra-version=3ubuntu5 --toolchain=hardened --libdir=/usr/lib/x86_64-linux-gnu --incdir=/usr/include/x86_64-linux-gnu --arch=amd64 --enable-gpl --disable-stripping --disable-omx --enable-gnutls --enable-libaom --enable-libass --enable-libbs2b --enable-libcaca --enable-libcdio --enable-libcodec2 --enable-libdav1d --enable-libflite --enable-libfontconfig --enable-libfreetype --enable-libfribidi --enable-libglslang --enable-libgme --enable-libgsm --enable-libharfbuzz --enable-libmp3lame --enable-libmysofa --enable-libopenjpeg --enable-libopenmpt --enable-libopus --enable-librubberband --enable-libshine --enable-libsnappy --enable-libsoxr --enable-libspeex --enable-libtheora --enable-libtwolame --enable-libvidstab --enable-libvorbis --enable-libvpx --enable-libwebp --enable-libx265 --enable-libxml2 --enable-libxvid --enable-libzimg --enable-openal --enable-opencl --enable-opengl --disable-sndio --enable-libvpl --disable-libmfx --enable-libdc1394 --enable-libdrm --enable-libiec61883 --enable-chromaprint --enable-frei0r --enable-ladspa --enable-libbluray --enable-libjack --enable-libpulse --enable-librabbitmq --enable-librist --enable-libsrt --enable-libssh --enable-libsvtav1 --enable-libx264 --enable-libzmq --enable-libzvbi --enable-lv2 --enable-sdl2 --enable-libplacebo --enable-librav1e --enable-pocketsphinx --enable-librsvg --enable-libjxl --enable-shared
  libavutil      58. 29.100 / 58. 29.100
  libavcodec     60. 31.102 / 60. 31.102
  libavformat    60. 16.100 / 60. 16.100
  libavdevice    60.  3.100 / 60.  3.100
  libavfilter     9. 12.100 /  9. 12.100
  libswscale      7.  5.100 /  7.  5.100
  libswresample   4. 12.100 /  4. 12.100
  libpostproc    57.  3.100 / 57.  3.100
Splitting the commandline.
Reading option '-y' ... matched as option 'y' (overwrite output files) with argument '1'.
Reading option '-loglevel' ... matched as option 'loglevel' (set logging level) with argument 'debug'.
Reading option '-f' ... matched as option 'f' (force format) with argument 'rawvideo'.
Reading option '-pixel_format' ... matched as AVOption 'pixel_format' with argument 'bgr24'.
Reading option '-video_size' ... matched as AVOption 'video_size' with argument '640x480'.
Reading option '-r' ... matched as option 'r' (set frame rate (Hz value, fraction or abbreviation)) with argument '30'.
Reading option '-i' ... matched as output url with argument '-'.
Reading option '-c:v' ... matched as option 'c' (codec name) with argument 'libx264'.
Reading option '-pix_fmt' ... matched as option 'pix_fmt' (set pixel format) with argument 'yuv420p'.
Reading option './../video/output_2024-08-13-14-56-18.mp4' ... matched as output url.
Finished splitting the commandline.
Parsing a group of options: global .
Applying option y (overwrite output files) with argument 1.
Applying option loglevel (set logging level) with argument debug.
Successfully parsed a group of options.
Parsing a group of options: input url -.
Applying option f (force format) with argument rawvideo.
Applying option r (set frame rate (Hz value, fraction or abbreviation)) with argument 30.
Successfully parsed a group of options.
Opening an input file: -.
[rawvideo @ 0x60ae659bf4c0] Opening 'fd:' for reading
[fd @ 0x60ae659bfb40] Setting default whitelist 'crypto,data'
[rawvideo @ 0x60ae659bf4c0] Before avformat_find_stream_info() pos: 0 bytes read:65536 seeks:0 nb_streams:1
[rawvideo @ 0x60ae659bf4c0] All info found
[rawvideo @ 0x60ae659bf4c0] After avformat_find_stream_info() pos: 921600 bytes read:921600 seeks:0 frames:1
Input #0, rawvideo, from 'fd:':
  Duration: N/A, start: 0.000000, bitrate: 221184 kb/s
  Stream #0:0, 1, 1/30: Video: rawvideo, 1 reference frame (BGR[24] / 0x18524742), bgr24, 640x480, 0/1, 221184 kb/s, 30 tbr, 30 tbn
Successfully opened the file.
Parsing a group of options: output url ./../video/output_2024-08-13-14-56-18.mp4.
Applying option c:v (codec name) with argument libx264.
Applying option pix_fmt (set pixel format) with argument yuv420p.
Successfully parsed a group of options.
Opening an output file: ./../video/output_2024-08-13-14-56-18.mp4.
[out#0/mp4 @ 0x60ae659d1340] No explicit maps, mapping streams automatically...
[vost#0:0/libx264 @ 0x60ae659d2640] Created video stream from input stream 0:0
[file @ 0x60ae659d5080] Setting default whitelist 'file,crypto,data'
Successfully opened the file.
Stream mapping:
  Stream #0:0 -> #0:0 (rawvideo (native) -> h264 (libx264))
[rawvideo @ 0x60ae659d1780] PACKET SIZE: 921600, STRIDE: 1920
detected 4 logical cores
[graph 0 input from stream 0:0 @ 0x60ae659d66c0] Setting 'video_size' to value '640x480'
[graph 0 input from stream 0:0 @ 0x60ae659d66c0] Setting 'pix_fmt' to value '3'
[graph 0 input from stream 0:0 @ 0x60ae659d66c0] Setting 'time_base' to value '1/30'
[graph 0 input from stream 0:0 @ 0x60ae659d66c0] Setting 'pixel_aspect' to value '0/1'
[graph 0 input from stream 0:0 @ 0x60ae659d66c0] Setting 'frame_rate' to value '30/1'
[graph 0 input from stream 0:0 @ 0x60ae659d66c0] w:640 h:480 pixfmt:bgr24 tb:1/30 fr:30/1 sar:0/1
[format @ 0x60ae659d6c40] Setting 'pix_fmts' to value 'yuv420p'
[auto_scale_0 @ 0x60ae659d8040] w:iw h:ih flags:'' interl:0
[format @ 0x60ae659d6c40] auto-inserting filter 'auto_scale_0' between the filter 'Parsed_null_0' and the filter 'format'
[AVFilterGraph @ 0x60ae659d1140] query_formats: 4 queried, 2 merged, 1 already done, 0 delayed
[auto_scale_0 @ 0x60ae659d8040] w:640 h:480 fmt:bgr24 sar:0/1 -> w:640 h:480 fmt:yuv420p sar:0/1 flags:0x00000004
[libx264 @ 0x60ae659d2a00] using mv_range_thread = 40
[libx264 @ 0x60ae659d2a00] using cpu capabilities: MMX2 SSE2Fast LZCNT SSSE3 SSE4.2
[libx264 @ 0x60ae659d2a00] profile High, level 3.0, 4:2:0, 8-bit
[libx264 @ 0x60ae659d2a00] 264 - core 164 r3108 31e19f9 - H.264/MPEG-4 AVC codec - Copyleft 2003-2023 - http://www.videolan.org/x264.html - options: cabac=1 ref=3 deblock=1:0:0 analyse=0x3:0x113 me=hex subme=7 psy=1 psy_rd=1.00:0.00 mixed_ref=1 me_range=16 chroma_me=1 trellis=1 8x8dct=1 cqm=0 deadzone=21,11 fast_pskip=1 chroma_qp_offset=-2 threads=6 lookahead_threads=1 sliced_threads=0 nr=0 decimate=1 interlaced=0 bluray_compat=0 constrained_intra=0 bframes=3 b_pyramid=2 b_adapt=1 b_bias=0 direct=1 weightb=1 open_gop=0 weightp=2 keyint=250 keyint_min=25 scenecut=40 intra_refresh=0 rc_lookahead=40 rc=crf mbtree=1 crf=23.0 qcomp=0.60 qpmin=0 qpmax=69 qpstep=4 ip_ratio=1.40 aq=1:1.00
Output #0, mp4, to './../video/output_2024-08-13-14-56-18.mp4':
  Metadata:
    encoder         : Lavf60.16.100
  Stream #0:0, 0, 1/15360: Video: h264, 1 reference frame (avc1 / 0x31637661), yuv420p(tv, progressive), 640x480 (0x0), 0/1, q=2-31, 30 fps, 15360 tbn
    Metadata:
      encoder         : Lavc60.31.102 libx264
    Side data:
      cpb: bitrate max/min/avg: 0/0/0 buffer size: 0 vbv_delay: N/A
frame=    0 fps=0.0 q=0.0 size=       0kB time=N/A bitrate=N/A speed=N/A    [rawvideo @ 0x60ae659d1780] PACKET SIZE: 921600, STRIDE: 1920
    Last message repeated 1 times
frame=    0 fps=0.0 q=0.0 size=       0kB time=N/A bitrate=N/A speed=N/A    [rawvideo @ 0x60ae659d1780] PACKET SIZE: 921600, STRIDE: 1920
    Last message repeated 8 times
frame=    0 fps=0.0 q=0.0 size=       0kB time=N/A bitrate=N/A speed=N/A    [rawvideo @ 0x60ae659d1780] PACKET SIZE: 921600, STRIDE: 1920
    Last message repeated 3 times
frame=    0 fps=0.0 q=0.0 size=       0kB time=N/A bitrate=N/A speed=N/A    [rawvideo @ 0x60ae659d1780] PACKET SIZE: 921600, STRIDE: 1920
    Last message repeated 5 times
frame=    0 fps=0.0 q=0.0 size=       0kB time=N/A bitrate=N/A speed=N/A    [rawvideo @ 0x60ae659d1780] PACKET SIZE: 921600, STRIDE: 1920
    Last message repeated 6 times
frame=    0 fps=0.0 q=0.0 size=       0kB time=N/A bitrate=N/A speed=N/A    [rawvideo @ 0x60ae659d1780] PACKET SIZE: 921600, STRIDE: 1920
    Last message repeated 6 times
frame=    0 fps=0.0 q=0.0 size=       0kB time=N/A bitrate=N/A speed=N/A    [rawvideo @ 0x60ae659d1780] PACKET SIZE: 921600, STRIDE: 1920
    Last message repeated 5 times
[libx264 @ 0x60ae659d2a00] scene cut at 1 Icost:254948 Pcost:250796 ratio:0.0163 bias:0.0250 gop:1 (imb:1033 pmb:31)
[rawvideo @ 0x60ae659d1780] PACKET SIZE: 921600, STRIDE: 1920
[libx264 @ 0x60ae659d2a00] scene cut at 1 Icost:254948 Pcost:250796 ratio:0.0163 bias:0.0250 gop:1 (imb:1033 pmb:31)
[rawvideo @ 0x60ae659d1780] PACKET SIZE: 921600, STRIDE: 1920
    Last message repeated 1 times
frame=    0 fps=0.0 q=0.0 size=       0kB time=N/A bitrate=N/A speed=N/A    [rawvideo @ 0x60ae659d1780] PACKET SIZE: 921600, STRIDE: 1920
    Last message repeated 5 times
[libx264 @ 0x60ae659d2a00] frame=   0 QP=25.87 NAL=3 Slice:I Poc:0   I:1200 P:0    SKIP:0    size=3133 bytes
[rawvideo @ 0x60ae659d1780] PACKET SIZE: 921600, STRIDE: 1920
[libx264 @ 0x60ae659d2a00] frame=   1 QP=22.70 NAL=2 Slice:I Poc:2   I:1200 P:0    SKIP:0    size=9614 bytes
frame=    1 fps=0.2 q=29.0 size=       0kB time=-00:00:00.03 bitrate=N/A speed=N/A    [rawvideo @ 0x60ae659d1780] PACKET SIZE: 921600, STRIDE: 1920
[libx264 @ 0x60ae659d2a00] frame=   2 QP=21.34 NAL=2 Slice:P Poc:10  I:72   P:493  SKIP:635  size=1323 bytes
[rawvideo @ 0x60ae659d1780] PACKET SIZE: 921600, STRIDE: 1920
[libx264 @ 0x60ae659d2a00] frame=   3 QP=22.58 NAL=2 Slice:B Poc:6   I:2    P:327  SKIP:871  size=350 bytes
[rawvideo @ 0x60ae659d1780] PACKET SIZE: 921600, STRIDE: 1920
[libx264 @ 0x60ae659d2a00] frame=   4 QP=21.82 NAL=0 Slice:B Poc:4   I:1    P:208  SKIP:991  size=189 bytes
[rawvideo @ 0x60ae659d1780] PACKET SIZE: 921600, STRIDE: 1920
[libx264 @ 0x60ae659d2a00] frame=   5 QP=23.00 NAL=0 Slice:B Poc:8   I:0    P:211  SKIP:989  size=176 bytes
[rawvideo @ 0x60ae659d1780] PACKET SIZE: 921600, STRIDE: 1920
[libx264 @ 0x60ae659d2a00] frame=   6 QP=20.82 NAL=2 Slice:P Poc:18  I:20   P:154  SKIP:1026 size=469 bytes
[rawvideo @ 0x60ae659d1780] PACKET SIZE: 921600, STRIDE: 1920
[libx264 @ 0x60ae659d2a00] frame=   7 QP=22.03 NAL=2 Slice:B Poc:14  I:0    P:213  SKIP:987  size=249 bytes
[rawvideo @ 0x60ae659d1780] PACKET SIZE: 921600, STRIDE: 1920
[libx264 @ 0x60ae659d2a00] frame=   8 QP=22.14 NAL=0 Slice:B Poc:12  I:0    P:144  SKIP:1056 size=146 bytes
[rawvideo @ 0x60ae659d1780] PACKET SIZE: 921600, STRIDE: 1920
[libx264 @ 0x60ae659d2a00] frame=   9 QP=23.00 NAL=0 Slice:B Poc:16  I:0    P:102  SKIP:1098 size=110 bytes
[rawvideo @ 0x60ae659d1780] PACKET SIZE: 921600, STRIDE: 1920
[libx264 @ 0x60ae659d2a00] frame=  10 QP=21.23 NAL=2 Slice:P Poc:26  I:21   P:255  SKIP:924  size=606 bytes
[rawvideo @ 0x60ae659d1780] PACKET SIZE: 921600, STRIDE: 1920
[libx264 @ 0x60ae659d2a00] frame=  11 QP=22.17 NAL=2 Slice:B Poc:22  I:2    P:195  SKIP:1003 size=240 bytes
frame=   11 fps=2.2 q=29.0 size=       0kB time=00:00:00.30 bitrate=   1.3kbits/s speed=0.0589x    [rawvideo @ 0x60ae659d1780] PACKET SIZE: 921600, STRIDE: 1920
[libx264 @ 0x60ae659d2a00] frame=  12 QP=22.15 NAL=0 Slice:B Poc:20  I:0    P:146  SKIP:1054 size=146 bytes
[rawvideo @ 0x60ae659d1780] PACKET SIZE: 921600, STRIDE: 1920
[libx264 @ 0x60ae659d2a00] frame=  13 QP=22.64 NAL=0 Slice:B Poc:24  I:0    P:105  SKIP:1095 size=123 bytes
[rawvideo @ 0x60ae659d1780] PACKET SIZE: 921600, STRIDE: 1920
[libx264 @ 0x60ae659d2a00] frame=  14 QP=21.85 NAL=2 Slice:P Poc:34  I:40   P:407  SKIP:753  size=1155 bytes
[rawvideo @ 0x60ae659d1780] PACKET SIZE: 921600, STRIDE: 1920
[libx264 @ 0x60ae659d2a00] frame=  15 QP=22.20 NAL=2 Slice:B Poc:30  I:0    P:368  SKIP:832  size=357 bytes
[rawvideo @ 0x60ae659d1780] PACKET SIZE: 921600, STRIDE: 1920
[libx264 @ 0x60ae659d2a00] frame=  16 QP=23.00 NAL=0 Slice:B Poc:28  I:0    P:293  SKIP:907  size=247 bytes
[rawvideo @ 0x60ae659d1780] PACKET SIZE: 921600, STRIDE: 1920
[libx264 @ 0x60ae659d2a00] frame=  17 QP=23.00 NAL=0 Slice:B Poc:32  I:0    P:229  SKIP:971  size=184 bytes
frame=   18 fps=3.2 q=29.0 size=       0kB time=00:00:00.50 bitrate=   0.8kbits/s speed=0.0893x    [rawvideo @ 0x60ae659d1780] PACKET SIZE: 921600, STRIDE: 1920
[libx264 @ 0x60ae659d2a00] frame=  18 QP=21.69 NAL=2 Slice:P Poc:42  I:16   P:363  SKIP:821  size=931 bytes
[rawvideo @ 0x60ae659d1780] PACKET SIZE: 921600, STRIDE: 1920
[libx264 @ 0x60ae659d2a00] frame=  19 QP=22.88 NAL=2 Slice:B Poc:38  I:0    P:287  SKIP:913  size=261 bytes
[rawvideo @ 0x60ae659d1780] PACKET SIZE: 921600, STRIDE: 1920
[libx264 @ 0x60ae659d2a00] frame=  20 QP=22.28 NAL=0 Slice:B Poc:36  I:0    P:211  SKIP:989  size=188 bytes
[rawvideo @ 0x60ae659d1780] PACKET SIZE: 921600, STRIDE: 1920
[libx264 @ 0x60ae659d2a00] frame=  21 QP=23.89 NAL=0 Slice:B Poc:40  I:0    P:115  SKIP:1085 size=119 bytes
[rawvideo @ 0x60ae659d1780] PACKET SIZE: 921600, STRIDE: 1920
[libx264 @ 0x60ae659d2a00] frame=  22 QP=21.59 NAL=2 Slice:P Poc:50  I:21   P:378  SKIP:801  size=1107 bytes
[rawvideo @ 0x60ae659d1780] PACKET SIZE: 921600, STRIDE: 1920
[libx264 @ 0x60ae659d2a00] frame=  23 QP=22.63 NAL=2 Slice:B Poc:46  I:1    P:321  SKIP:878  size=324 bytes
[rawvideo @ 0x60ae659d1780] PACKET SIZE: 921600, STRIDE: 1920
[libx264 @ 0x60ae659d2a00] frame=  24 QP=23.81 NAL=0 Slice:B Poc:44  I:0    P:192  SKIP:1008 size=161 bytes
[rawvideo @ 0x60ae659d1780] PACKET SIZE: 921600, STRIDE: 1920
[libx264 @ 0x60ae659d2a00] frame=  25 QP=22.39 NAL=0 Slice:B Poc:48  I:1    P:156  SKIP:1043 size=177 bytes
[rawvideo @ 0x60ae659d1780] PACKET SIZE: 921600, STRIDE: 1920
[libx264 @ 0x60ae659d2a00] frame=  26 QP=21.82 NAL=2 Slice:P Poc:58  I:13   P:325  SKIP:862  size=955 bytes
frame=   26 fps=4.2 q=29.0 size=       0kB time=00:00:00.80 bitrate=   0.5kbits/s speed=0.128x    [rawvideo @ 0x60ae659d1780] PACKET SIZE: 921600, STRIDE: 1920
[libx264 @ 0x60ae659d2a00] frame=  27 QP=22.30 NAL=2 Slice:B Poc:54  I:0    P:240  SKIP:960  size=307 bytes
[rawvideo @ 0x60ae659d1780] PACKET SIZE: 921600, STRIDE: 1920
[libx264 @ 0x60ae659d2a00] frame=  28 QP=23.88 NAL=0 Slice:B Poc:52  I:0    P:165  SKIP:1035 size=172 bytes
[rawvideo @ 0x60ae659d1780] PACKET SIZE: 921600, STRIDE: 1920
[libx264 @ 0x60ae659d2a00] frame=  29 QP=23.18 NAL=0 Slice:B Poc:56  I:0    P:118  SKIP:1082 size=158 bytes
[rawvideo @ 0x60ae659d1780] PACKET SIZE: 921600, STRIDE: 1920
[libx264 @ 0x60ae659d2a00] frame=  30 QP=21.89 NAL=2 Slice:P Poc:66  I:17   P:394  SKIP:789  size=1114 bytes
[rawvideo @ 0x60ae659d1780] PACKET SIZE: 921600, STRIDE: 1920
[libx264 @ 0x60ae659d2a00] frame=  31 QP=22.77 NAL=2 Slice:B Poc:62  I:0    P:410  SKIP:790  size=364 bytes
[rawvideo @ 0x60ae659d1780] PACKET SIZE: 921600, STRIDE: 1920
[libx264 @ 0x60ae659d2a00] frame=  32 QP=22.72 NAL=0 Slice:B Poc:60  I:1    P:277  SKIP:922  size=223 bytes
frame=   32 fps=4.7 q=29.0 size=       0kB time=00:00:01.00 bitrate=   0.4kbits/s speed=0.148x    [rawvideo @ 0x60ae659d1780] PACKET SIZE: 921600, STRIDE: 1920
[libx264 @ 0x60ae659d2a00] frame=  33 QP=22.24 NAL=0 Slice:B Poc:64  I:0    P:146  SKIP:1054 size=173 bytes
[rawvideo @ 0x60ae659d1780] PACKET SIZE: 921600, STRIDE: 1920
[libx264 @ 0x60ae659d2a00] frame=  34 QP=21.52 NAL=2 Slice:P Poc:74  I:16   P:323  SKIP:861  size=859 bytes
[rawvideo @ 0x60ae659d1780] PACKET SIZE: 921600, STRIDE: 1920
[libx264 @ 0x60ae659d2a00] frame=  35 QP=22.63 NAL=2 Slice:B Poc:70  I:0    P:230  SKIP:970  size=257 bytes
[rawvideo @ 0x60ae659d1780] PACKET SIZE: 921600, STRIDE: 1920
[libx264 @ 0x60ae659d2a00] frame=  36 QP=23.00 NAL=0 Slice:B Poc:68  I:0    P:176  SKIP:1024 size=181 bytes
[rawvideo @ 0x60ae659d1780] PACKET SIZE: 921600, STRIDE: 1920
[libx264 @ 0x60ae659d2a00] frame=  37 QP=24.00 NAL=0 Slice:B Poc:72  I:0    P:91   SKIP:1109 size=119 bytes
[rawvideo @ 0x60ae659d1780] PACKET SIZE: 921600, STRIDE: 1920
[libx264 @ 0x60ae659d2a00] frame=  38 QP=21.67 NAL=2 Slice:P Poc:82  I:12   P:310  SKIP:878  size=835 bytes
[rawvideo @ 0x60ae659d1780] PACKET SIZE: 921600, STRIDE: 1920
[libx264 @ 0x60ae659d2a00] frame=  39 QP=22.02 NAL=2 Slice:B Poc:78  I:0    P:201  SKIP:999  size=219 bytes
[rawvideo @ 0x60ae659d1780] PACKET SIZE: 921600, STRIDE: 1920
[libx264 @ 0x60ae659d2a00] frame=  40 QP=23.89 NAL=0 Slice:B Poc:76  I:0    P:150  SKIP:1050 size=155 bytes
frame=   40 fps=5.5 q=29.0 size=       0kB time=00:00:01.26 bitrate=   0.3kbits/s speed=0.174x    [rawvideo @ 0x60ae659d1780] PACKET SIZE: 921600, STRIDE: 1920
[libx264 @ 0x60ae659d2a00] frame=  41 QP=23.34 NAL=0 Slice:B Poc:80  I:0    P:108  SKIP:1092 size=130 bytes
[rawvideo @ 0x60ae659d1780] PACKET SIZE: 921600, STRIDE: 1920
[libx264 @ 0x60ae659d2a00] frame=  42 QP=21.51 NAL=2 Slice:P Poc:90  I:13   P:346  SKIP:841  size=866 bytes
[rawvideo @ 0x60ae659d1780] PACKET SIZE: 921600, STRIDE: 1920
[libx264 @ 0x60ae659d2a00] frame=  43 QP=22.68 NAL=2 Slice:B Poc:86  I:0    P:248  SKIP:952  size=255 bytes
[rawvideo @ 0x60ae659d1780] PACKET SIZE: 921600, STRIDE: 1920
[libx264 @ 0x60ae659d2a00] frame=  44 QP=22.69 NAL=0 Slice:B Poc:84  I:0    P:121  SKIP:1079 size=137 bytes
[rawvideo @ 0x60ae659d1780] PACKET SIZE: 921600, STRIDE: 1920
[libx264 @ 0x60ae659d2a00] frame=  45 QP=22.49 NAL=0 Slice:B Poc:88  I:0    P:99   SKIP:1101 size=125 bytes
[rawvideo @ 0x60ae659d1780] PACKET SIZE: 921600, STRIDE: 1920
[libx264 @ 0x60ae659d2a00] frame=  46 QP=21.90 NAL=2 Slice:P Poc:98  I:15   P:381  SKIP:804  size=1022 bytes
[rawvideo @ 0x60ae659d1780] PACKET SIZE: 921600, STRIDE: 1920
[libx264 @ 0x60ae659d2a00] frame=  47 QP=22.66 NAL=2 Slice:B Poc:94  I:0    P:302  SKIP:898  size=287 bytes
[rawvideo @ 0x60ae659d1780] PACKET SIZE: 921600, STRIDE: 1920
[libx264 @ 0x60ae659d2a00] frame=  48 QP=23.22 NAL=0 Slice:B Poc:92  I:0    P:228  SKIP:972  size=190 bytes
[rawvideo @ 0x60ae659d1780] PACKET SIZE: 921600, STRIDE: 1920
[libx264 @ 0x60ae659d2a00] frame=  49 QP=22.85 NAL=0 Slice:B Poc:96  I:0    P:197  SKIP:1003 size=186 bytes
frame=   49 fps=6.3 q=29.0 size=       0kB time=00:00:01.56 bitrate=   0.2kbits/s speed=0.201x    [rawvideo @ 0x60ae659d1780] PACKET SIZE: 921600, STRIDE: 1920
[libx264 @ 0x60ae659d2a00] frame=  50 QP=21.49 NAL=2 Slice:P Poc:106 I:11   P:308  SKIP:881  size=781 bytes
[rawvideo @ 0x60ae659d1780] PACKET SIZE: 921600, STRIDE: 1920
[libx264 @ 0x60ae659d2a00] frame=  51 QP=22.46 NAL=2 Slice:B Poc:102 I:1    P:198  SKIP:1001 size=219 bytes
[rawvideo @ 0x60ae659d1780] PACKET SIZE: 921600, STRIDE: 1920
[libx264 @ 0x60ae659d2a00] frame=  52 QP=23.89 NAL=0 Slice:B Poc:100 I:0    P:154  SKIP:1046 size=148 bytes
[rawvideo @ 0x60ae659d1780] PACKET SIZE: 921600, STRIDE: 1920
[libx264 @ 0x60ae659d2a00] frame=  53 QP=22.64 NAL=0 Slice:B Poc:104 I:0    P:62   SKIP:1138 size=90 bytes
[rawvideo @ 0x60ae659d1780] PACKET SIZE: 921600, STRIDE: 1920
[libx264 @ 0x60ae659d2a00] frame=  54 QP=21.84 NAL=2 Slice:P Poc:114 I:1    P:429  SKIP:770  size=1148 bytes
[in#0/rawvideo @ 0x60ae659bf3c0] EOF while reading input
[in#0/rawvideo @ 0x60ae659bf3c0] Terminating demuxer thread
[vist#0:0/rawvideo @ 0x60ae659d1600] Decoder thread received EOF packet
[vist#0:0/rawvideo @ 0x60ae659d1600] Decoder returned EOF, finishing
[vist#0:0/rawvideo @ 0x60ae659d1600] Terminating decoder thread
[libx264 @ 0x60ae659d2a00] frame=  55 QP=22.28 NAL=2 Slice:B Poc:110 I:0    P:400  SKIP:800  size=309 bytes
[libx264 @ 0x60ae659d2a00] frame=  56 QP=23.09 NAL=0 Slice:B Poc:108 I:0    P:268  SKIP:932  size=204 bytes
[libx264 @ 0x60ae659d2a00] frame=  57 QP=23.42 NAL=0 Slice:B Poc:112 I:0    P:154  SKIP:1046 size=152 bytes
[libx264 @ 0x60ae659d2a00] frame=  58 QP=21.53 NAL=2 Slice:P Poc:122 I:6    P:368  SKIP:826  size=950 bytes
[libx264 @ 0x60ae659d2a00] frame=  59 QP=21.79 NAL=2 Slice:B Poc:118 I:0    P:280  SKIP:920  size=229 bytes
[libx264 @ 0x60ae659d2a00] frame=  60 QP=23.95 NAL=0 Slice:B Poc:116 I:0    P:218  SKIP:982  size=172 bytes
[libx264 @ 0x60ae659d2a00] frame=  61 QP=24.00 NAL=0 Slice:B Poc:120 I:0    P:83   SKIP:1117 size=105 bytes
[libx264 @ 0x60ae659d2a00] frame=  62 QP=21.76 NAL=2 Slice:P Poc:130 I:11   P:344  SKIP:845  size=954 bytes
[libx264 @ 0x60ae659d2a00] frame=  63 QP=22.63 NAL=2 Slice:B Poc:126 I:0    P:387  SKIP:813  size=281 bytes
[libx264 @ 0x60ae659d2a00] frame=  64 QP=23.93 NAL=0 Slice:B Poc:124 I:0    P:222  SKIP:978  size=178 bytes
[libx264 @ 0x60ae659d2a00] frame=  65 QP=23.14 NAL=0 Slice:B Poc:128 I:0    P:179  SKIP:1021 size=172 bytes
[libx264 @ 0x60ae659d2a00] frame=  66 QP=21.43 NAL=2 Slice:P Poc:138 I:12   P:287  SKIP:901  size=843 bytes
[libx264 @ 0x60ae659d2a00] frame=  67 QP=22.54 NAL=2 Slice:B Poc:134 I:0    P:209  SKIP:991  size=194 bytes
[libx264 @ 0x60ae659d2a00] frame=  68 QP=22.82 NAL=0 Slice:B Poc:132 I:0    P:195  SKIP:1005 size=169 bytes
[libx264 @ 0x60ae659d2a00] frame=  69 QP=23.41 NAL=0 Slice:B Poc:136 I:0    P:72   SKIP:1128 size=103 bytes
[libx264 @ 0x60ae659d2a00] frame=  70 QP=21.48 NAL=2 Slice:P Poc:146 I:7    P:292  SKIP:901  size=725 bytes
[libx264 @ 0x60ae659d2a00] frame=  71 QP=21.76 NAL=2 Slice:B Poc:142 I:0    P:248  SKIP:952  size=234 bytes
[libx264 @ 0x60ae659d2a00] frame=  72 QP=23.29 NAL=0 Slice:B Poc:140 I:0    P:181  SKIP:1019 size=152 bytes
[libx264 @ 0x60ae659d2a00] frame=  73 QP=23.64 NAL=0 Slice:B Poc:144 I:0    P:102  SKIP:1098 size=117 bytes
[libx264 @ 0x60ae659d2a00] frame=  74 QP=21.90 NAL=2 Slice:P Poc:154 I:5    P:343  SKIP:852  size=839 bytes
[libx264 @ 0x60ae659d2a00] frame=  75 QP=22.72 NAL=2 Slice:B Poc:150 I:0    P:291  SKIP:909  size=255 bytes
[libx264 @ 0x60ae659d2a00] frame=  76 QP=22.73 NAL=0 Slice:B Poc:148 I:0    P:173  SKIP:1027 size=157 bytes
[libx264 @ 0x60ae659d2a00] frame=  77 QP=24.00 NAL=0 Slice:B Poc:152 I:0    P:122  SKIP:1078 size=129 bytes
[libx264 @ 0x60ae659d2a00] frame=  78 QP=21.99 NAL=2 Slice:P Poc:162 I:3    P:381  SKIP:816  size=946 bytes
[libx264 @ 0x60ae659d2a00] frame=  79 QP=22.33 NAL=2 Slice:B Poc:158 I:0    P:321  SKIP:879  size=264 bytes
[libx264 @ 0x60ae659d2a00] frame=  80 QP=23.41 NAL=0 Slice:B Poc:156 I:0    P:250  SKIP:950  size=217 bytes
[libx264 @ 0x60ae659d2a00] frame=  81 QP=21.69 NAL=0 Slice:B Poc:160 I:0    P:154  SKIP:1046 size=151 bytes
[libx264 @ 0x60ae659d2a00] frame=  82 QP=21.82 NAL=2 Slice:P Poc:170 I:3    P:349  SKIP:848  size=777 bytes
[libx264 @ 0x60ae659d2a00] frame=  83 QP=22.41 NAL=2 Slice:B Poc:166 I:0    P:323  SKIP:877  size=271 bytes
[libx264 @ 0x60ae659d2a00] frame=  84 QP=23.95 NAL=0 Slice:B Poc:164 I:0    P:227  SKIP:973  size=183 bytes
[libx264 @ 0x60ae659d2a00] frame=  85 QP=23.67 NAL=0 Slice:B Poc:168 I:0    P:144  SKIP:1056 size=145 bytes
[libx264 @ 0x60ae659d2a00] frame=  86 QP=21.72 NAL=2 Slice:P Poc:178 I:12   P:236  SKIP:952  size=541 bytes
[libx264 @ 0x60ae659d2a00] frame=  87 QP=22.27 NAL=2 Slice:B Poc:174 I:0    P:185  SKIP:1015 size=195 bytes
[libx264 @ 0x60ae659d2a00] frame=  88 QP=23.24 NAL=0 Slice:B Poc:172 I:0    P:161  SKIP:1039 size=142 bytes
[libx264 @ 0x60ae659d2a00] frame=  89 QP=23.28 NAL=0 Slice:B Poc:176 I:0    P:92   SKIP:1108 size=105 bytes
[libx264 @ 0x60ae659d2a00] frame=  90 QP=21.40 NAL=2 Slice:P Poc:186 I:4    P:191  SKIP:1005 size=426 bytes
[libx264 @ 0x60ae659d2a00] frame=  91 QP=21.87 NAL=2 Slice:B Poc:182 I:0    P:213  SKIP:987  size=208 bytes
[libx264 @ 0x60ae659d2a00] frame=  92 QP=23.00 NAL=0 Slice:B Poc:180 I:0    P:163  SKIP:1037 size=144 bytes
[libx264 @ 0x60ae659d2a00] frame=  93 QP=21.93 NAL=0 Slice:B Poc:184 I:0    P:84   SKIP:1116 size=107 bytes
[libx264 @ 0x60ae659d2a00] frame=  94 QP=22.37 NAL=2 Slice:P Poc:194 I:1    P:261  SKIP:938  size=586 bytes
[libx264 @ 0x60ae659d2a00] frame=  95 QP=21.92 NAL=2 Slice:B Poc:190 I:0    P:243  SKIP:957  size=221 bytes
[libx264 @ 0x60ae659d2a00] frame=  96 QP=23.00 NAL=0 Slice:B Poc:188 I:0    P:185  SKIP:1015 size=181 bytes
[libx264 @ 0x60ae659d2a00] frame=  97 QP=24.00 NAL=0 Slice:B Poc:192 I:0    P:97   SKIP:1103 size=112 bytes
[libx264 @ 0x60ae659d2a00] frame=  98 QP=22.48 NAL=2 Slice:P Poc:202 I:5    P:193  SKIP:1002 size=412 bytes
[libx264 @ 0x60ae659d2a00] frame=  99 QP=21.89 NAL=2 Slice:B Poc:198 I:0    P:175  SKIP:1025 size=190 bytes
[libx264 @ 0x60ae659d2a00] frame= 100 QP=22.70 NAL=0 Slice:B Poc:196 I:0    P:148  SKIP:1052 size=144 bytes
[libx264 @ 0x60ae659d2a00] frame= 101 QP=23.80 NAL=0 Slice:B Poc:200 I:0    P:74   SKIP:1126 size=101 bytes
[libx264 @ 0x60ae659d2a00] frame= 102 QP=23.27 NAL=2 Slice:P Poc:208 I:1    P:129  SKIP:1070 size=211 bytes
[libx264 @ 0x60ae659d2a00] frame= 103 QP=24.02 NAL=2 Slice:B Poc:204 I:0    P:191  SKIP:1009 size=190 bytes
[libx264 @ 0x60ae659d2a00] frame= 104 QP=23.14 NAL=0 Slice:B Poc:206 I:0    P:104  SKIP:1096 size=127 bytes
[out#0/mp4 @ 0x60ae659d1340] All streams finished
[out#0/mp4 @ 0x60ae659d1340] Terminating muxer thread
[AVIOContext @ 0x60ae659d5140] Statistics: 51476 bytes written, 2 seeks, 4 writeouts
[out#0/mp4 @ 0x60ae659d1340] Output file #0 (./../video/output_2024-08-13-14-56-18.mp4):
[out#0/mp4 @ 0x60ae659d1340]   Output stream #0:0 (video): 105 frames encoded; 105 packets muxed (49369 bytes); 
[out#0/mp4 @ 0x60ae659d1340]   Total: 105 packets (49369 bytes) muxed
[out#0/mp4 @ 0x60ae659d1340] video:48kB audio:0kB subtitle:0kB other streams:0kB global headers:0kB muxing overhead: 4.259758%
frame=  105 fps= 12 q=-1.0 Lsize=      50kB time=00:00:03.40 bitrate= 121.1kbits/s speed=0.381x    
[libx264 @ 0x60ae659d2a00] frame I:2     Avg QP:24.29  size:  6374
[libx264 @ 0x60ae659d2a00] frame P:26    Avg QP:21.74  size:   822
[libx264 @ 0x60ae659d2a00] frame B:77    Avg QP:22.88  size:   189
[libx264 @ 0x60ae659d2a00] consecutive B-frames:  1.9%  0.0%  2.9% 95.2%
[libx264 @ 0x60ae659d2a00] mb I  I16..4: 32.9% 58.5%  8.6%
[libx264 @ 0x60ae659d2a00] mb P  I16..4:  0.9%  0.2%  0.0%  P16..4: 22.0%  1.4%  3.0%  0.0%  0.0%    skip:72.4%
[libx264 @ 0x60ae659d2a00] mb B  I16..4:  0.0%  0.0%  0.0%  B16..8: 16.3%  0.0%  0.0%  direct: 0.0%  skip:83.7%  L0:44.7% L1:55.3% BI: 0.0%
[libx264 @ 0x60ae659d2a00] 8x8 transform intra:53.1% inter:94.0%
[libx264 @ 0x60ae659d2a00] coded y,uvDC,uvAC intra: 24.4% 31.6% 8.1% inter: 1.2% 2.5% 0.0%
[libx264 @ 0x60ae659d2a00] i16 v,h,dc,p:  5% 23%  4% 69%
[libx264 @ 0x60ae659d2a00] i8 v,h,dc,ddl,ddr,vr,hd,vl,hu: 45% 16% 14%  4%  3%  6%  3%  1%  8%
[libx264 @ 0x60ae659d2a00] i4 v,h,dc,ddl,ddr,vr,hd,vl,hu: 31% 12% 17%  9%  7% 12%  3%  2%  7%
[libx264 @ 0x60ae659d2a00] i8c dc,h,v,p: 72% 14% 12%  2%
[libx264 @ 0x60ae659d2a00] Weighted P-Frames: Y:3.8% UV:0.0%
[libx264 @ 0x60ae659d2a00] ref P L0: 77.6%  1.7% 17.7%  3.0%
[libx264 @ 0x60ae659d2a00] ref B L0: 90.7%  8.5%  0.8%
[libx264 @ 0x60ae659d2a00] ref B L1: 96.8%  3.2%
[libx264 @ 0x60ae659d2a00] kb/s:111.27
[in#0/rawvideo @ 0x60ae659bf3c0] Input file #0 (fd:):
[in#0/rawvideo @ 0x60ae659bf3c0]   Input stream #0:0 (video): 105 packets read (96768000 bytes); 105 frames decoded; 0 decode errors; 
[in#0/rawvideo @ 0x60ae659bf3c0]   Total: 105 packets (96768000 bytes) demuxed
[AVIOContext @ 0x60ae659cfdc0] Statistics: 96768000 bytes read, 0 seeks
Exiting normally, received signal 2.
